<svg height="512pt" viewBox="0 -133 512 512" width="512pt" xmlns="http://www.w3.org/2000/svg"><path d="m50 104.058594c-5.519531 0-10 4.480468-10 10 0 5.523437 4.480469 10 10 10s10-4.476563 10-10c0-5.519532-4.480469-10-10-10zm0 0"/><path d="m460.921875 108.582031c-29.59375.679688-59.78125-3.902343-89.710937-13.621093-46.425782-15.078126-94.5-42.984376-140.320313-86.625-10.738281-10.273438-27.117187-11.136719-38.867187-2.113282l-34.09375 25.6875c-26.496094 20.339844-69.375 21.960938-97.613282 3.6875l-14.988281-9.710937c-4.410156-2.855469-10.277344-1.8125-13.433594 2.386719-20.566406 27.375-31.894531 61.304687-31.894531 95.535156v90.25c0 5.523437 4.476562 10 10 10h146c5.523438 0 10-4.476563 10-10v-3.675782c18.832031 4.710938 44.8125 11.882813 77.476562 21.386719 2.824219.617188 41.90625 14.011719 95.339844 14.011719 59.277344 0 118.605469-16.03125 167.839844-41.941406 3.285156-1.726563 5.34375-5.136719 5.34375-8.847656v-42.472657c0-17.40625-19.828125-44.65625-51.078125-43.9375zm-87.960937 7.847657c29.484374 8.726562 59.1875 12.824218 88.417968 12.148437 13.375-.277344 24.832032 7.960937 29.152344 19.570313-107.296875 66.546874-230.382812 25.964843-230.480469 25.96875-16.796875-4.890626-45.609375-13.28125-71.46875-19.898438 22.078125-22.382812 48.160157-16.019531 77.769531-8.796875 37.023438 9.035156 76.609376 17.816406 106.609376-28.992187zm-352.960938 7.378906c0-26.820313 7.953125-53.429688 22.550781-75.890625l6.894531 4.46875c35.46875 22.949219 87.339844 20.964843 120.589844-4.558594l34.097656-25.6875c3.875-2.976563 9.4375-2.699219 12.949219.65625 1.265625 1.210937 2.773438 2.699219 5.480469 5.246094l-7.722656 9.199219c-3.550782 4.230468-2.996094 10.539062 1.234375 14.085937 4.253906 3.574219 10.5625 2.972656 14.085937-1.230469l7.332032-8.734375c4.570312 3.867188 9.78125 8.09375 15.582031 12.535157l-7.59375 9.054687c-3.550781 4.230469-3 10.539063 1.234375 14.089844 4.25 3.5625 10.550781 2.976562 14.085937-1.234375l8.472657-10.101563c5.28125 3.660157 10.898437 7.371094 16.835937 11.066407l-9.980469 11.890624c-3.550781 4.226563-3 10.535157 1.230469 14.085938 4.257813 3.574219 10.5625 2.972656 14.089844-1.230469l12.148437-14.472656c15.042969 8.332031 31.667969 16.234375 49.636719 22.847656-22.199219 30.71875-48.96875 24.191407-82.144531 16.097657-38.832032-9.476563-74.582032-15.980469-104.3125 22.9375-14.5625-3.273438-24.667969-4.871094-30.777344-4.871094h-116zm472 65.074218c-130.398438 65.324219-241.257812 23.664063-242.894531 23.695313-6.507813-1.890625-86.210938-24.886719-93.105469-24.886719-5.523438 0-10 4.480469-10 10v6.367188h-126v-40h116c18.914062 0 100.5 24.03125 118.457031 29.257812.105469.019532 115.898438 42.238282 237.542969-23.039062zm0 0"/><path d="m146 114.058594c0-5.519532-4.476562-10-10-10h-46c-5.523438 0-10 4.480468-10 10 0 5.523437 4.476562 10 10 10h46c5.523438 0 10-4.476563 10-10zm0 0"/></svg>